<svg width="33" height="32" viewBox="0 0 33 32" fill="none" xmlns="http://www.w3.org/2000/svg">
<circle cx="16.75" cy="16" r="16" fill="black"/>
<path fill-rule="evenodd" clip-rule="evenodd" d="M16.75 0C7.91344 0 0.75 7.16344 0.75 16C0.75 24.8366 7.91344 32 16.75 32C25.5866 32 32.75 24.8366 32.75 16C32.75 7.16344 25.5866 0 16.75 0ZM23.6417 12.4466H19.1222V11.1517H23.6417V12.4466ZM23.2434 13.5335C22.6995 13.293 22.0884 13.1722 21.4091 13.1722C20.2661 13.1722 19.3379 13.5296 18.6205 14.2394C17.905 14.9512 17.5468 15.9738 17.5468 17.3072C17.5468 18.7288 17.9421 19.7563 18.7379 20.3869C19.5296 21.0185 20.4458 21.3333 21.4843 21.3333C22.7417 21.3333 23.72 20.9591 24.4184 20.2117C24.866 19.7405 25.1188 19.2762 25.174 18.8209H23.0919C22.9714 19.0466 22.831 19.2228 22.6714 19.3505C22.3814 19.5851 22.0031 19.7029 21.5405 19.7029C21.101 19.7029 20.7267 19.6059 20.4157 19.4128C19.9019 19.103 19.633 18.5615 19.5988 17.7903H25.2814C25.2904 17.1261 25.2683 16.6153 25.2132 16.2628C25.1188 15.66 24.9121 15.1293 24.59 14.672C24.2368 14.1533 23.7883 13.7731 23.2434 13.5335ZM13.3132 10.6667C14.5996 10.6855 15.5098 11.0547 16.0466 11.7754C16.3687 12.2179 16.5303 12.7465 16.5303 13.3633C16.5303 13.9978 16.3687 14.5096 16.0426 14.8957C15.86 15.1115 15.592 15.3095 15.2378 15.4877C15.7757 15.6817 16.1811 15.9876 16.457 16.4064C16.73 16.8241 16.8674 17.333 16.8674 17.9309C16.8674 18.5476 16.7109 19.101 16.3968 19.59C16.1981 19.9138 15.9493 20.187 15.6502 20.4087C15.3141 20.6631 14.9177 20.8364 14.4591 20.9314C14.0006 21.0255 13.5049 21.071 12.969 21.071H8.21667V10.6667H13.3132Z" fill="white"/>
<path fill-rule="evenodd" clip-rule="evenodd" d="M10.3188 12.4733H12.6147C13.1195 12.4733 13.5349 12.5278 13.862 12.6357C14.2393 12.7921 14.428 13.1118 14.428 13.5979C14.428 14.0335 14.2845 14.3384 13.9995 14.5106C13.7125 14.6829 13.3402 14.769 12.8837 14.769H10.3188V12.4733ZM20.1928 15.2719C20.4808 14.9789 20.8882 14.8324 21.41 14.8324C21.8917 14.8324 22.2941 14.97 22.6212 15.2462C22.9443 15.5243 23.1269 15.9282 23.164 16.4628H19.649C19.7232 15.9619 19.9048 15.5649 20.1928 15.2719ZM12.9158 16.4905H10.3188V19.2653H12.8797C13.3372 19.2653 13.6945 19.204 13.9483 19.0822C14.4109 18.8545 14.6417 18.4229 14.6417 17.7834C14.6417 17.2409 14.419 16.8697 13.9704 16.6667C13.7195 16.5539 13.3673 16.4945 12.9158 16.4905Z" fill="white"/>
</svg>
