<svg width="33" height="32" viewBox="0 0 33 32" fill="none" xmlns="http://www.w3.org/2000/svg">
<circle cx="16.75" cy="16" r="16" fill="black"/>
<path fill-rule="evenodd" clip-rule="evenodd" d="M16.75 0C7.91344 0 0.75 7.16344 0.75 16C0.75 24.8366 7.91344 32 16.75 32C25.5866 32 32.75 24.8366 32.75 16C32.75 7.16344 25.5866 0 16.75 0ZM25.1092 14.2726C25.2246 14.8331 25.2833 15.4106 25.2833 15.9882C25.2833 16.5653 25.2246 17.1415 25.1092 17.7033C24.9967 18.2517 24.83 18.7901 24.6117 19.3048C24.3983 19.8104 24.1337 20.2976 23.8245 20.7519C23.52 21.2034 23.1691 21.627 22.7837 22.0131C22.3974 22.3976 21.9724 22.7475 21.5211 23.0533C21.0652 23.3604 20.5773 23.6246 20.0715 23.8389C19.556 24.0561 19.0164 24.2225 18.4684 24.3349C17.9059 24.4506 17.3275 24.5096 16.7496 24.5096C16.1713 24.5096 15.5929 24.4506 15.0312 24.3349C14.4824 24.2225 13.9428 24.0561 13.4278 23.8389C12.9219 23.6246 12.4336 23.3604 11.9777 23.0533C11.5264 22.7475 11.1014 22.3976 10.716 22.0131C10.3301 21.627 9.97927 21.2034 9.67426 20.7519C9.36675 20.2976 9.10172 19.8103 8.88755 19.3048C8.66918 18.7901 8.50211 18.2517 8.38919 17.7033C8.27502 17.1415 8.21667 16.5653 8.21667 15.9882C8.21667 15.4106 8.27499 14.8331 8.38922 14.2726C8.50215 13.7242 8.66921 13.1849 8.88759 12.6711C9.10175 12.1651 9.36678 11.6775 9.6743 11.2231C9.97931 10.7713 10.3302 10.3485 10.716 9.96193C11.1015 9.57745 11.5265 9.22838 11.9777 8.92298C12.4336 8.61464 12.922 8.35045 13.4278 8.13573C13.9429 7.91808 14.4824 7.75125 15.0312 7.63975C15.5929 7.52492 16.1713 7.46666 16.7497 7.46666C17.3276 7.46666 17.9059 7.52492 18.4685 7.63975C19.0164 7.75128 19.556 7.91811 20.0715 8.13573C20.5773 8.35042 21.0653 8.61464 21.5211 8.92298C21.9724 9.22838 22.3974 9.57745 22.7837 9.96193C23.1691 10.3485 23.52 10.7713 23.8246 11.2231C24.1337 11.6775 24.3983 12.1652 24.6117 12.6711C24.83 13.1849 24.9967 13.7242 25.1092 14.2726Z" fill="white"/>
<path fill-rule="evenodd" clip-rule="evenodd" d="M21.5617 10.5276L21.5624 10.5266C20.2794 9.39689 18.5947 8.71164 16.7496 8.71164C16.1575 8.71164 15.5829 8.78321 15.0325 8.91552L15.0443 8.93138C15.2169 9.16217 16.5448 10.9382 17.7568 13.1604C20.484 12.1395 21.5273 10.579 21.5617 10.5276ZM22.3771 11.366C22.3487 11.4066 21.1765 13.0789 18.3177 14.2448C18.4868 14.5918 18.6506 14.945 18.8018 15.3C18.8556 15.4273 18.9081 15.5521 18.9594 15.6769C21.4149 15.3684 23.8347 15.8717 24.026 15.9115L24.0346 15.9132C24.018 14.1882 23.4 12.6049 22.3775 11.3654L22.3771 11.366ZM19.4035 16.8253C20.3593 19.4484 20.7477 21.5846 20.8219 22.0231C22.4582 20.9205 23.6204 19.1696 23.9445 17.1415C23.7945 17.0933 21.7557 16.4487 19.4035 16.8253ZM18.038 17.1624C19.0635 19.8237 19.4868 22.0522 19.5948 22.688C18.7201 23.0595 17.7588 23.2647 16.7497 23.2647C15.0596 23.2647 13.5078 22.6851 12.2706 21.7243C12.2858 21.6914 13.69 18.675 17.9897 17.1782C17.9997 17.1745 18.0099 17.1713 18.0202 17.1681L18.0202 17.1681L18.0202 17.168L18.0203 17.168L18.038 17.1624ZM16.95 14.7199C17.1588 15.1285 17.3584 15.543 17.5413 15.9565C17.4455 15.984 17.3488 16.0123 17.2538 16.0439C13.3211 17.3138 11.3268 20.8468 11.3293 20.8506C10.1684 19.5619 9.46216 17.8576 9.46216 15.9882C9.46216 15.9342 9.46394 15.8814 9.46573 15.8282C9.46654 15.8043 9.46735 15.7803 9.468 15.756C9.59716 15.761 13.1978 15.8417 16.95 14.7199ZM16.3463 13.5994C15.085 11.3617 13.7374 9.53551 13.6403 9.40607C11.6081 10.3643 10.0914 12.2342 9.6184 14.4878L9.62541 14.4878C9.87447 14.4901 12.8842 14.518 16.3463 13.5994Z" fill="white"/>
</svg>
