<svg width="33" height="32" viewBox="0 0 33 32" fill="none" xmlns="http://www.w3.org/2000/svg">
<circle cx="16.75" cy="16" r="16" fill="black"/>
<path fill-rule="evenodd" clip-rule="evenodd" d="M16.75 0C7.91344 0 0.75 7.16344 0.75 16C0.75 24.8366 7.91344 32 16.75 32C25.5866 32 32.75 24.8366 32.75 16C32.75 7.16344 25.5866 0 16.75 0ZM8.43109 13.2519H12.057V24.1464H8.43109V13.2519ZM12.2958 9.8818C12.2723 8.8136 11.5084 8 10.268 8C9.02761 8 8.21667 8.8136 8.21667 9.8818C8.21667 10.9279 9.00364 11.7649 10.221 11.7649H10.2441C11.5084 11.7649 12.2958 10.9279 12.2958 9.8818ZM20.9588 12.9961C23.3448 12.9961 25.1336 14.5535 25.1336 17.8998L25.1335 24.1464H21.5077V18.3178C21.5077 16.8538 20.983 15.8548 19.6704 15.8548C18.6686 15.8548 18.0719 16.5283 17.8099 17.1788C17.714 17.4119 17.6905 17.7367 17.6905 18.0623V24.1467H14.0641C14.0641 24.1467 14.1119 14.2745 14.0641 13.2522H17.6905V14.7953C18.1717 14.0535 19.0336 12.9961 20.9588 12.9961Z" fill="white"/>
</svg>
