<svg width="33" height="32" viewBox="0 0 33 32" fill="none" xmlns="http://www.w3.org/2000/svg">
<circle cx="16.75" cy="16" r="16" fill="black"/>
<path fill-rule="evenodd" clip-rule="evenodd" d="M0.75 16C0.75 24.8366 7.91344 32 16.75 32C25.5866 32 32.75 24.8366 32.75 16C32.75 7.16344 25.5866 0 16.75 0C7.91344 0 0.75 7.16344 0.75 16ZM13.8166 23.3333L14.0889 19.2548L14.0886 19.2547L21.5079 12.5593C21.8335 12.2704 21.4368 12.1294 21.0046 12.3916L11.8482 18.1682L7.89309 16.9338C7.03897 16.6723 7.03284 16.0853 8.08485 15.6634L23.4968 9.72058C24.2008 9.401 24.8801 9.88964 24.6114 10.967L21.9868 23.3354C21.8035 24.2143 21.2724 24.4245 20.5366 24.0185L16.5384 21.0646L14.6166 22.9333C14.6106 22.9392 14.6045 22.9451 14.5985 22.9509C14.3836 23.1602 14.2058 23.3333 13.8166 23.3333Z" fill="white"/>
</svg>
